<svg id="Layer_1" data-name="Layer 1" xmlns="http://www.w3.org/2000/svg" xmlns:xlink="http://www.w3.org/1999/xlink" viewBox="0 0 846.57 258.63"><defs><style>.cls-1,.cls-10{fill:#fff;}.cls-10,.cls-11,.cls-12,.cls-2,.cls-3,.cls-4,.cls-5,.cls-6,.cls-7,.cls-8,.cls-9{fill-rule:evenodd;}.cls-2{fill:url(#linear-gradient);}.cls-3{fill:url(#linear-gradient-2);}.cls-4{fill:url(#linear-gradient-3);}.cls-5{fill:url(#linear-gradient-4);}.cls-6{fill:url(#linear-gradient-5);}.cls-12,.cls-7{fill:#131313;}.cls-7{opacity:0.08;}.cls-8{fill:#4e2d83;}.cls-9{fill:#a657a2;}.cls-11{fill:#ccc;}</style><linearGradient id="linear-gradient" x1="312.86" y1="481.38" x2="312.86" y2="226.2" gradientUnits="userSpaceOnUse"><stop offset="0" stop-color="#f1592b"/><stop offset="0.57" stop-color="#f9991e"/><stop offset="1" stop-color="#ffc416"/></linearGradient><linearGradient id="linear-gradient-2" x1="241.77" y1="454.46" x2="241.77" y2="367.34" gradientUnits="userSpaceOnUse"><stop offset="0" stop-color="#089447"/><stop offset="0.15" stop-color="#179946"/><stop offset="0.43" stop-color="#40a842"/><stop offset="0.82" stop-color="#81be3d"/><stop offset="1" stop-color="#a2ca3a"/></linearGradient><linearGradient id="linear-gradient-3" x1="214.18" y1="370.29" x2="272.9" y2="336.39" gradientUnits="userSpaceOnUse"><stop offset="0" stop-color="#328ebf"/><stop offset="0.37" stop-color="#2393c8"/><stop offset="1" stop-color="#009ddb"/></linearGradient><linearGradient id="linear-gradient-4" x1="334.82" y1="363.23" x2="247.1" y2="275.51" gradientUnits="userSpaceOnUse"><stop offset="0" stop-color="#4e2d83"/><stop offset="0.3" stop-color="#4e3287"/><stop offset="0.68" stop-color="#4e4194"/><stop offset="1" stop-color="#4e54a4"/></linearGradient><linearGradient id="linear-gradient-5" x1="284.9" y1="325.42" x2="396.42" y2="261.04" gradientUnits="userSpaceOnUse"><stop offset="0" stop-color="#e82429"/><stop offset="0.3" stop-color="#e9232e"/><stop offset="0.66" stop-color="#ea203d"/><stop offset="1" stop-color="#ec1b52"/></linearGradient></defs><g id="Logo"><path class="cls-1" d="M483.15,346.72c-15.72,3.31-25.23,17.44-25.23,32.72,0,29,27.68,40.51,47.57,31.14,4.47-2,9.23-5.76,14.56-11.24l12.4,13.4c-13,13.27-24.22,19.18-41.66,19.18-46.43,0-61.27-49-44.55-78.86,10.67-19,27.82-25.08,46.85-25.37,20-.29,50,11.82,29.7,35.89C517.6,349.46,497.85,343.55,483.15,346.72Z" transform="translate(-210.75 -225.94)"/><path class="cls-1" d="M601.07,421.83c-21.77,21.62-58.54,6.92-58.54-29.27,0-23.21,17.59-39.79,36.48-39.07,18.45.72,21.48,17.16,18,23.36-3.17-4.76-10.09-6.06-15.57-6.06-26.67,0-27.25,44,0,44,15.28,0,19.61-15.28,19.61-28.69v-30.7h18.74V430H601.07Z" transform="translate(-210.75 -225.94)"/><path class="cls-1" d="M673.14,353.64a25.51,25.51,0,0,1,20.62,7.64,21.06,21.06,0,0,1,4.18,6.34c1.3-8.36,12.54-13.55,21.62-14a26.56,26.56,0,0,1,21.05,7.64q6.5,6.71,6.49,19.46V430H728.36c0-9.66,0-43.1-1.15-50.16-1-6.06-4.62-9.52-10.53-9.81-6.63-.14-11.82,4.47-11.68,10.24a10.8,10.8,0,0,1-4.9-4,43,43,0,0,1,.15,4.47V430H681.79c0-9.66.72-43.25-1.15-50.16-1.59-6.06-6.2-9.23-11.24-9.23-6.64,0-10.53,3.89-10.53,9.66-2.31-.72-4.9-3.46-5.91-6.2V430H634.22V355.51H653V364C656,357.24,666.37,354.07,673.14,353.64Z" transform="translate(-210.75 -225.94)"/><path class="cls-1" d="M782.13,328.26a11.24,11.24,0,0,1,3.6,8.51,12,12,0,0,1-3.46,8.65c-5.19,5.19-15.57,3.32-18,9.8-1.73-6.05-5.33-20.76,1-27.1a11.63,11.63,0,0,1,8.5-3.46A10.94,10.94,0,0,1,782.13,328.26Zm.86,27.11V430h-18.6V370.5C765.11,358.83,772.75,355.51,783,355.37Z" transform="translate(-210.75 -225.94)"/><path class="cls-1" d="M818.31,430H800.14V343.83c0-9.22,7.07-14.85,18.17-14.7Z" transform="translate(-210.75 -225.94)"/><path class="cls-1" d="M850.89,430H832.72V343.83c0-9.22,7.07-14.85,18.17-14.7Z" transform="translate(-210.75 -225.94)"/><path class="cls-1" d="M885.92,328.26a11.24,11.24,0,0,1,3.6,8.51,12,12,0,0,1-3.46,8.65c-5.19,5.19-15.57,3.32-18,9.8-1.73-6.05-5.33-20.76,1-27.1a11.63,11.63,0,0,1,8.51-3.46A10.93,10.93,0,0,1,885.92,328.26Zm.86,27.11V430H868.19V370.5C868.91,358.83,876.55,355.51,886.78,355.37Z" transform="translate(-210.75 -225.94)"/><path class="cls-1" d="M974.43,412.31c-12.54,22.06-43.39,26.53-61.7,8.22a39.5,39.5,0,0,1-10-39.07c5.19-16.87,33.16-15.57,34.89.72-5.91-4.18-17.59-.43-17.73,10.81.14,28.84,40.8,28.55,40.8-.28,0-14.85-11.39-23.79-24.8-21-5.62-6.78-17.59-8.51-26-3.46,7.64-9.23,18.16-14.56,30.13-14.56C970.39,353.64,989.57,385.93,974.43,412.31Z" transform="translate(-210.75 -225.94)"/><path class="cls-1" d="M1030.22,353.49a26.31,26.31,0,0,1,20.61,7.79q6.5,6.71,6.49,19.46V430h-18.45c0-9.66.72-43.25-1.16-50.16-1.58-6.06-6.34-9.23-11.39-9.23-6.48,0-10.38,3.89-10.38,9.66-2.3-.72-4.9-3.46-6.05-6.2V430h-18.6V355.37h18.6V364C1013.06,357.24,1023.3,353.93,1030.22,353.49Z" transform="translate(-210.75 -225.94)"/><path class="cls-2" d="M413.57,325.4c-.14.72-.29,1.45-.44,2.18l-.71-.18-31.78-8.52a4.06,4.06,0,0,0-4.9,2.29,3.9,3.9,0,0,0-.3,2,4,4,0,0,0,2.43,3.3l2.22.95,13.67,5.89c-2,.59-3.84,1.07-5.66,1.44a51.44,51.44,0,0,1-10.35,1.12A52.45,52.45,0,0,1,364,334.05l-.57-.14c-3.35-.91-6.62-2-9.95-3.15-9.24-3.15-18.94-6.46-32.11-6.46a57.92,57.92,0,0,0-20,3.41,55.79,55.79,0,0,0-23.71,16.91l-.17.21a66.81,66.81,0,0,0-5.82,8.19c-6.68,11-10.74,24.29-12.09,38.26-.13,1.48-.25,3-.31,4.44,0,.36-.06.72-.07,1.08a110.43,110.43,0,0,0,4.51,36.63,97.48,97.48,0,0,0,9.08,21,80.22,80.22,0,0,0,25,26.92c-36.36-6.76-61.44-29.17-75.27-57.55q-2.24-4.56-4.07-9.33c-7.09-18.35-9.87-34.51-5.85-47,0-.07,0-.13.07-.2,4.83-14.72,19.22-24.24,47.29-26,0,0-17.64-8.13-48.74,4.31,2.13-13.94,6.61-25.35,13.65-34l.1-.12a48.92,48.92,0,0,1,22.26-15.33c8.55-3,18.63-4.23,30.34-3.68,0,0-20.56-10.52-41.48-2.8-.88.32-1.76.67-2.63,1.06.44-.6.9-1.2,1.37-1.79a96.88,96.88,0,0,1,18.67-18.53c1.52-1.12,3.06-2.19,4.64-3.18,12.09-7.71,25.77-11.63,40.14-9.48a56.36,56.36,0,0,1,7.35,1.62,62.5,62.5,0,0,1,12.66,5.35s-2.58-8.69-15.59-14.59a130.2,130.2,0,0,1,18.67-1.3,4.08,4.08,0,0,0,4.08-4.08V226.2C346.34,231.55,426.47,256.71,413.57,325.4Z" transform="translate(-210.75 -225.94)"/><path class="cls-3" d="M272.79,454.46l-50.27-30.63q-2.24-4.56-4.07-9.33c-7.09-18.35-9.87-34.51-5.85-47,0-.07,0-.13.07-.2l46.6,28.38c0,.36,0,.74,0,1.1a110.29,110.29,0,0,0,4.49,36.61A97.48,97.48,0,0,0,272.79,454.46Z" transform="translate(-210.75 -225.94)"/><path class="cls-4" d="M277.66,344.63l-.17.21a68.09,68.09,0,0,0-5.83,8.2c-6.67,11-10.73,24.27-12.08,38.24-.17,1.83-.28,3.68-.36,5.54L212.6,367.55c4.77-14.83,18.27-24.53,46.46-26.35,0,0-16.88-7.86-48,4.58,2.13-13.95,6.74-25.5,13.78-34.13a.48.48,0,0,0,.09-.11Z" transform="translate(-210.75 -225.94)"/><path class="cls-5" d="M364,334.05l-.57-.14c-3.35-.91-6.5-1.64-9.84-2.78-9.23-3.15-18.73-6.53-31.9-6.53a60.65,60.65,0,0,0-20.47,3.48,54.54,54.54,0,0,0-23.72,16.75l-52.63-33.19a49.05,49.05,0,0,1,22.36-15.45,74.45,74.45,0,0,1,29.22-4s-19.22-9.69-40.36-2.49c-.88.3-1.76.67-2.63,1.06.44-.6.9-1.2,1.37-1.79a96.88,96.88,0,0,1,18.67-18.53c1.52-1.12,3.06-2.19,4.64-3.18Z" transform="translate(-210.75 -225.94)"/><path class="cls-6" d="M413.7,325.48l-.57,2.25L380.4,319a3.51,3.51,0,0,0-4.48,2.16,3.92,3.92,0,0,0-.3,2,4,4,0,0,0,2.43,3.29l2.22,1,13.79,5.8c-2,.59-4.54,1.51-6.36,1.88a51,51,0,0,1-10.23,1.09,52.77,52.77,0,0,1-14.21-2l-110-63.62c13.17-9.77,28.43-15.3,44.67-12.87a59.1,59.1,0,0,1,7.68,1.63,55,55,0,0,1,11.92,5s-2.13-8.37-15.14-14.27a130.3,130.3,0,0,1,18.66-1.22A4,4,0,0,0,325.2,245l-.22-19C345.88,231.3,426.6,256.79,413.7,325.48Z" transform="translate(-210.75 -225.94)"/><path class="cls-7" d="M332.94,228.3c-2.95-.9-6-1.74-8-2.25l.21,18.68a3.9,3.9,0,0,1-3.79,4.13,135.27,135.27,0,0,0-19,1.31,38.4,38.4,0,0,1,10.21,6.44,102.33,102.33,0,0,1,20.37.52V228.3Zm-32.16,29.93C274.37,253,250,268.5,233.46,290.77a46.21,46.21,0,0,1,17.8-3.88c13-14.19,29.71-24.57,49.52-28.66Zm-58.6,40c-17.37,8.05-27.44,24.22-31,47.37a108,108,0,0,1,11.77-4,127.82,127.82,0,0,1,19.19-43.41Zm-21.67,56.53c-13.43,13-11.91,34.24-2.06,59.73,12.65,32.73,39.08,59.39,79.34,66.88-61.92-18-84.44-74.67-77.28-126.61Z" transform="translate(-210.75 -225.94)"/><path class="cls-8" d="M334.42,353.42A65.58,65.58,0,1,1,268.85,419a65.58,65.58,0,0,1,65.57-65.58Z" transform="translate(-210.75 -225.94)"/><path class="cls-9" d="M334.42,484.58a65.58,65.58,0,0,1-10.86-130.26c-42.29,15.21-61.79,55-36.65,101.33l.31-11.89c11.59,32.33,47.2,40.82,47.2,40.82Z" transform="translate(-210.75 -225.94)"/><path class="cls-10" d="M335.66,376.47a42.9,42.9,0,1,1-42.9,42.89,42.89,42.89,0,0,1,42.9-42.89Z" transform="translate(-210.75 -225.94)"/><path class="cls-8" d="M291.69,437.24c20.91,26.3,48.79,27.34,63.63,6.18,12.88-21.39-3.08-43.92-20.7-44.29S308.29,419,317,429.63s27.34,4.12,23.67-7.29-14.88-3-12.42.49,3.7,4.58,2.35,5.75c-3.07,2.65-15.31-11.76.59-17.67,24.12-7.24,26.95,36.58-4.64,35.67-16.9-.27-24.54-20.35-23-31.33,4.52-33.1,57.33-41,70.17,2.64,5.07,17.27-1,41.89-29.08,55.09-25.94,10.11-55.34-28.06-55.34-28.06s-7.45-12-8.33-18.11S286,430,291.69,437.24Z" transform="translate(-210.75 -225.94)"/><path class="cls-10" d="M361.39,252.61a25.46,25.46,0,1,1-18,31.18,25.45,25.45,0,0,1,18-31.18Z" transform="translate(-210.75 -225.94)"/><path class="cls-11" d="M388.09,292.81a25.46,25.46,0,1,1-36.9-34.75,25.46,25.46,0,0,0,36.9,34.75Z" transform="translate(-210.75 -225.94)"/><path class="cls-12" d="M369.26,260.34a12.69,12.69,0,1,1-9,15.54,12.68,12.68,0,0,1,9-15.54Z" transform="translate(-210.75 -225.94)"/></g></svg>