<svg id="Layer_5" data-name="Layer 5" xmlns="http://www.w3.org/2000/svg" viewBox="0 0 85.37 25.93"><defs><style>.cls-1,.cls-2{fill:#ee3f36;}.cls-1{fill-rule:evenodd;}</style></defs><path class="cls-1" d="M417.23,141.49l6.41-3.7c.53-.31.71-.09.7.6v7.22a.74.74,0,0,1-.4.71l-3.73,2.15h0l-3,1.74a.27.27,0,0,1-.38-.24v-7.72A1,1,0,0,1,417.23,141.49Z" transform="translate(-407.81 -132.08)"/><path class="cls-1" d="M415.34,142.25a1,1,0,0,0-.43-.76l-6.4-3.7c-.54-.31-.71-.09-.7.6v7.22a.72.72,0,0,0,.4.71l3.73,2.15h0l3,1.74a.27.27,0,0,0,.39-.24Z" transform="translate(-407.81 -132.08)"/><path class="cls-1" d="M423.11,135.83Zm-14.08,0Zm0,.58,6.51,3.76h0a1,1,0,0,0,.5.11,1,1,0,0,0,.51-.11h0l6.5-3.76a.34.34,0,0,0,0-.58l-2.9-1.68,0,0L417,132.32h0a2,2,0,0,0-1-.24,2,2,0,0,0-1,.24h0L412,134.13l0,0L409,135.83A.35.35,0,0,0,409.05,136.41Z" transform="translate(-407.81 -132.08)"/><path class="cls-2" d="M415.67,151.75a.41.41,0,1,1,.81,0v4.36a.41.41,0,1,1-.81,0v-4.36Zm3.46,2.1a.41.41,0,0,1,.81,0v3.76a.41.41,0,0,1-.81,0v-3.76Zm-6.92,0a.41.41,0,0,1,.81,0v3.76a.41.41,0,0,1-.81,0v-3.76Z" transform="translate(-407.81 -132.08)"/><path class="cls-2" d="M432.85,150.82a5.28,5.28,0,0,1-1.7-1.06.83.83,0,0,1-.34-.65.78.78,0,0,1,.22-.52.74.74,0,0,1,.53-.23.65.65,0,0,1,.46.18,4.33,4.33,0,0,0,1.32.86,3.9,3.9,0,0,0,1.53.28,3,3,0,0,0,1.7-.46,1.37,1.37,0,0,0,.69-1.16,1.52,1.52,0,0,0-.69-1.29,6.22,6.22,0,0,0-2.06-.75,5.45,5.45,0,0,1-2.53-1.1,2.65,2.65,0,0,1-.88-2.12,2.79,2.79,0,0,1,.49-1.65,3.25,3.25,0,0,1,1.37-1.09,5,5,0,0,1,2-.38,5.2,5.2,0,0,1,1.86.32,3.94,3.94,0,0,1,1.42.84.91.91,0,0,1,.36.69.73.73,0,0,1-.73.73.48.48,0,0,1-.36-.13,3.42,3.42,0,0,0-1.15-.7,3.9,3.9,0,0,0-1.4-.29,3,3,0,0,0-1.7.44,1.35,1.35,0,0,0-.63,1.16,1.33,1.33,0,0,0,.63,1.19,5.77,5.77,0,0,0,1.87.7,10,10,0,0,1,2,.64,2.74,2.74,0,0,1,1.22,1,3,3,0,0,1,.43,1.7,2.67,2.67,0,0,1-.52,1.64,3.37,3.37,0,0,1-1.41,1.12,4.79,4.79,0,0,1-1.95.4A5.9,5.9,0,0,1,432.85,150.82Z" transform="translate(-407.81 -132.08)"/><path class="cls-2" d="M446.87,146v4.25a.76.76,0,0,1-1.3.55.78.78,0,0,1-.22-.55V146c0-1.38-.58-2.07-1.75-2.07a2.17,2.17,0,0,0-1.56.6,2,2,0,0,0-.62,1.47v4.25a.77.77,0,0,1-.21.55.78.78,0,0,1-.55.22.71.71,0,0,1-.55-.22.77.77,0,0,1-.2-.55V140a.76.76,0,0,1,.21-.54.72.72,0,0,1,.54-.22.74.74,0,0,1,.55.22.76.76,0,0,1,.21.54v4a3.36,3.36,0,0,1,1.12-1.06,2.77,2.77,0,0,1,1.52-.44Q446.87,142.5,446.87,146Z" transform="translate(-407.81 -132.08)"/><path class="cls-2" d="M448.44,141.34a.63.63,0,0,1-.2-.53v-.26a.65.65,0,0,1,.21-.54,1.19,1.19,0,0,1,.66-.16,1,1,0,0,1,.65.17.66.66,0,0,1,.2.53v.26a.65.65,0,0,1-.21.54,1,1,0,0,1-.65.16A1,1,0,0,1,448.44,141.34Zm1.21,9.43a.79.79,0,0,1-1.09,0,.77.77,0,0,1-.21-.55v-6.89a.74.74,0,0,1,.75-.77.78.78,0,0,1,.55.22.77.77,0,0,1,.21.55v6.89A.77.77,0,0,1,449.65,150.77Z" transform="translate(-407.81 -132.08)"/><path class="cls-2" d="M457.49,143.05a3.73,3.73,0,0,1,1.38,1.53,5.22,5.22,0,0,1,0,4.46,3.79,3.79,0,0,1-1.38,1.53,3.55,3.55,0,0,1-3.47.2,3.71,3.71,0,0,1-1.16-.9v3.54a.73.73,0,0,1-.22.54.71.71,0,0,1-.55.22.72.72,0,0,1-.53-.21.76.76,0,0,1-.22-.55v-10a.79.79,0,0,1,.21-.56.7.7,0,0,1,.54-.22.71.71,0,0,1,.55.22.76.76,0,0,1,.22.56v.46a3,3,0,0,1,1.11-.95,3.18,3.18,0,0,1,1.56-.4A3.56,3.56,0,0,1,457.49,143.05Zm-.81,6.3a2.61,2.61,0,0,0,.92-1,3.61,3.61,0,0,0,0-3,2.61,2.61,0,0,0-.92-1.05,2.4,2.4,0,0,0-1.32-.38,2.43,2.43,0,0,0-1.34.37,2.55,2.55,0,0,0-.92,1,3.65,3.65,0,0,0,0,3,2.55,2.55,0,0,0,.92,1.05,2.52,2.52,0,0,0,1.34.37A2.4,2.4,0,0,0,456.68,149.35Z" transform="translate(-407.81 -132.08)"/><path class="cls-2" d="M467.73,146a.72.72,0,0,1,.2.52.65.65,0,0,1-.2.49.73.73,0,0,1-.52.19h-2.45v2.44a.78.78,0,0,1-.23.58.75.75,0,0,1-.59.23.79.79,0,0,1-.81-.81v-2.44h-2.44a.65.65,0,0,1-.5-.2.69.69,0,0,1-.21-.51.65.65,0,0,1,.2-.5.73.73,0,0,1,.51-.19h2.44v-2.59a.78.78,0,0,1,.23-.58.81.81,0,0,1,.58-.22.77.77,0,0,1,.82.8v2.59h2.45A.73.73,0,0,1,467.73,146Z" transform="translate(-407.81 -132.08)"/><path class="cls-2" d="M476.79,140a.75.75,0,0,1,0,1.06.81.81,0,0,1-.55.19h-2.83v8.93a.75.75,0,0,1-.23.55.89.89,0,0,1-1.17,0,.75.75,0,0,1-.23-.55v-8.93H469a.81.81,0,0,1-.55-.2.7.7,0,0,1-.21-.54.66.66,0,0,1,.21-.51.76.76,0,0,1,.55-.2h7.28A.73.73,0,0,1,476.79,140Z" transform="translate(-407.81 -132.08)"/><path class="cls-2" d="M483.67,142.74a.77.77,0,0,1,.22.57v6.91a.75.75,0,0,1-.77.77.7.7,0,0,1-.54-.22.73.73,0,0,1-.2-.55v-.41a3.49,3.49,0,0,1-1.14.95,3.15,3.15,0,0,1-1.54.39,3.64,3.64,0,0,1-2-.56,3.78,3.78,0,0,1-1.38-1.55,5.17,5.17,0,0,1,0-4.48,3.83,3.83,0,0,1,1.37-1.55,3.56,3.56,0,0,1,1.93-.56,3.61,3.61,0,0,1,1.57.35,3.29,3.29,0,0,1,1.16.89v-.38a.79.79,0,0,1,.2-.56.7.7,0,0,1,.54-.22A.74.74,0,0,1,483.67,142.74Zm-2.47,6.62a2.53,2.53,0,0,0,.91-1.05,3.6,3.6,0,0,0,0-3,2.69,2.69,0,0,0-.91-1.06,2.31,2.31,0,0,0-1.33-.39,2.43,2.43,0,0,0-1.33.38,2.6,2.6,0,0,0-.9,1.06,3.62,3.62,0,0,0,0,3,2.51,2.51,0,0,0,.9,1.05,2.36,2.36,0,0,0,1.33.39A2.31,2.31,0,0,0,481.2,149.36Z" transform="translate(-407.81 -132.08)"/><path class="cls-2" d="M493,142.74a.81.81,0,0,1,.22.57v7a4,4,0,0,1-.55,2.16,3.37,3.37,0,0,1-1.49,1.28,5.17,5.17,0,0,1-2.12.41,5.9,5.9,0,0,1-1.49-.22,2.65,2.65,0,0,1-1.09-.46c-.33-.17-.5-.38-.5-.64a.72.72,0,0,1,.66-.65,1.28,1.28,0,0,1,.44.09,6,6,0,0,0,2,.5,2.84,2.84,0,0,0,2-.62,2.13,2.13,0,0,0,.67-1.68v-.86a2.76,2.76,0,0,1-1.12,1.07,3.32,3.32,0,0,1-1.67.45,3.75,3.75,0,0,1-2-.56,3.9,3.9,0,0,1-1.43-1.55,5.08,5.08,0,0,1,0-4.48,3.94,3.94,0,0,1,1.42-1.55,3.7,3.7,0,0,1,2-.56,3.43,3.43,0,0,1,1.64.4,3.38,3.38,0,0,1,1.18,1v-.51a.79.79,0,0,1,.21-.56.7.7,0,0,1,.54-.22A.75.75,0,0,1,493,142.74Zm-2.52,6.63a2.59,2.59,0,0,0,.94-1.05,3.3,3.3,0,0,0,.35-1.52,3.23,3.23,0,0,0-.35-1.51,2.69,2.69,0,0,0-.94-1.06,2.61,2.61,0,0,0-1.39-.38,2.54,2.54,0,0,0-1.37.38,2.71,2.71,0,0,0-.95,1.06,3.32,3.32,0,0,0-.34,1.51,3.24,3.24,0,0,0,.34,1.5,2.58,2.58,0,0,0,.95,1.06,2.47,2.47,0,0,0,1.37.39A2.61,2.61,0,0,0,490.44,149.37Z" transform="translate(-407.81 -132.08)"/></svg>