<?xml version="1.0" encoding="UTF-8"?><svg id="Layer_5" xmlns="http://www.w3.org/2000/svg" viewBox="0 0 85.42 25.88"><defs><style>.cls-1{fill:#fff;}.cls-2,.cls-3{fill:#ee3f36;}.cls-3{fill-rule:evenodd;}</style></defs><path class="cls-3" d="M9.42,9.41l6.41-3.7c.53-.31,.71-.09,.7,.6v7.22c.02,.3-.14,.57-.4,.71l-3.73,2.15h0l-3,1.74c-.14,.06-.3,0-.36-.14-.01-.03-.02-.07-.02-.1v-7.72c.01-.3,.16-.58,.4-.76Z"/><path class="cls-3" d="M7.53,10.17c-.02-.31-.18-.59-.43-.76L.7,5.71C.16,5.4,0,5.62,0,6.31v7.22c-.03,.3,.13,.58,.4,.71l3.73,2.15h0l3,1.74c.13,.07,.3,.01,.36-.12,.02-.04,.03-.08,.03-.12v-7.72Z"/><path class="cls-3" d="M1.22,4.33l6.51,3.76h0c.15,.08,.33,.12,.5,.11,.18,0,.35-.03,.51-.11h0l6.5-3.76c.16-.1,.21-.31,.11-.47-.03-.05-.07-.08-.11-.11l-2.9-1.68h0L9.19,.24h0C8.89,.07,8.54,0,8.19,0c-.35,0-.69,.07-1,.24h0l-3,1.81h0L1.19,3.75c-.15,.12-.18,.34-.05,.49,.03,.04,.06,.07,.1,.09h-.02Z"/><path class="cls-2" d="M7.86,19.67c-.04-.22,.12-.43,.34-.47s.43,.12,.47,.34c0,.04,0,.09,0,.13v4.36c.04,.22-.12,.43-.34,.47s-.43-.12-.47-.34c0-.04,0-.09,0-.13v-4.36Zm3.46,2.1c.04-.22,.25-.38,.47-.34,.18,.03,.31,.17,.34,.34v3.76c-.04,.22-.25,.38-.47,.34-.18-.03-.31-.17-.34-.34v-3.76Zm-6.92,0c.04-.22,.25-.38,.47-.34,.18,.03,.31,.17,.34,.34v3.76c-.04,.22-.25,.38-.47,.34-.18-.03-.31-.17-.34-.34v-3.76Z"/><path class="cls-1" d="M25.04,18.74c-.63-.24-1.21-.6-1.7-1.06-.21-.15-.33-.39-.34-.65,0-.19,.08-.38,.22-.52,.14-.15,.33-.23,.53-.23,.17,0,.34,.06,.46,.18,.38,.36,.83,.66,1.32,.86,.49,.2,1.01,.29,1.53,.28,.6,.02,1.19-.14,1.7-.46,.42-.24,.68-.68,.69-1.16,0-.52-.25-1.01-.69-1.29-.64-.37-1.33-.62-2.06-.75-.92-.14-1.79-.52-2.53-1.1-.6-.54-.92-1.32-.88-2.12-.01-.59,.16-1.17,.49-1.65,.35-.48,.82-.86,1.37-1.09,.63-.26,1.31-.39,2-.38,.63,0,1.26,.1,1.86,.32,.53,.18,1.01,.46,1.42,.84,.22,.16,.35,.42,.36,.69,0,.4-.33,.73-.73,.73h0c-.13,0-.26-.04-.36-.13-.33-.31-.72-.55-1.15-.7-.44-.18-.92-.28-1.4-.29-.6-.03-1.19,.13-1.7,.44-.4,.25-.64,.69-.63,1.16-.02,.48,.22,.94,.63,1.19,.58,.34,1.21,.58,1.87,.7,.69,.14,1.36,.36,2,.64,.5,.21,.92,.55,1.22,1,.31,.51,.46,1.1,.43,1.7,.01,.59-.17,1.17-.52,1.64-.36,.49-.85,.88-1.41,1.12-.61,.27-1.28,.4-1.95,.4-.7,.02-1.39-.09-2.05-.31Z"/><path class="cls-1" d="M39.06,13.92v4.25c0,.42-.32,.77-.74,.78-.21,0-.41-.08-.56-.23-.14-.15-.22-.34-.22-.55v-4.25c0-1.38-.58-2.07-1.75-2.07-.58-.02-1.14,.2-1.56,.6-.4,.38-.63,.92-.62,1.47v4.25c0,.2-.07,.4-.21,.55-.15,.14-.34,.22-.55,.22-.21,.01-.41-.07-.55-.22-.14-.15-.21-.35-.2-.55V7.92c0-.2,.07-.39,.21-.54,.14-.15,.34-.23,.54-.22,.21,0,.41,.07,.55,.22,.14,.15,.21,.34,.21,.54v4c.29-.44,.67-.8,1.12-1.06,.45-.29,.98-.44,1.52-.44,1.87,0,2.81,1.17,2.81,3.5Z"/><path class="cls-1" d="M40.63,9.26c-.15-.14-.22-.33-.2-.53v-.26c-.02-.2,.06-.4,.21-.54,.2-.12,.43-.17,.66-.16,.23-.02,.46,.04,.65,.17,.14,.14,.22,.33,.2,.53v.26c.02,.2-.06,.4-.21,.54-.19,.13-.42,.18-.65,.16-.23,.02-.47-.04-.66-.17Zm1.21,9.43c-.31,.29-.78,.29-1.09,0-.14-.15-.22-.35-.21-.55v-6.89c-.02-.41,.3-.75,.71-.77,.01,0,.03,0,.04,0,.21,0,.4,.08,.55,.22,.14,.15,.22,.35,.21,.55v6.89c0,.2-.07,.4-.21,.55h0Z"/><path class="cls-1" d="M49.68,10.97c.59,.37,1.07,.9,1.38,1.53,.67,1.41,.67,3.05,0,4.46-.31,.63-.79,1.16-1.38,1.53-1.04,.67-2.36,.74-3.47,.2-.44-.22-.84-.53-1.16-.9v3.54c0,.2-.07,.4-.22,.54-.14,.15-.34,.23-.55,.22-.2,0-.39-.07-.53-.21-.14-.15-.22-.34-.22-.55V11.33c0-.21,.07-.41,.21-.56,.14-.15,.34-.23,.54-.22,.21-.01,.41,.07,.55,.22,.15,.15,.23,.35,.22,.56v.46c.29-.4,.67-.73,1.11-.95,.48-.26,1.01-.4,1.56-.4,.69-.02,1.37,.17,1.96,.53Zm-.81,6.3c.39-.25,.71-.59,.92-1,.44-.95,.44-2.05,0-3-.21-.43-.52-.79-.92-1.05-.39-.25-.85-.38-1.32-.38-.47,0-.94,.12-1.34,.37-.39,.24-.71,.59-.92,1-.43,.95-.43,2.05,0,3,.2,.43,.52,.79,.92,1.05,.4,.25,.87,.37,1.34,.37,.47,.01,.92-.11,1.32-.36Z"/><path class="cls-1" d="M59.92,13.92c.13,.14,.21,.33,.2,.52,0,.18-.07,.36-.2,.49-.14,.13-.33,.2-.52,.19h-2.45v2.44c0,.22-.08,.43-.23,.58-.15,.16-.37,.24-.59,.23-.44,.01-.8-.33-.81-.77,0-.01,0-.03,0-.04v-2.44h-2.44c-.19,0-.37-.06-.5-.2-.14-.13-.21-.32-.21-.51,0-.19,.06-.37,.2-.5,.14-.13,.32-.19,.51-.19h2.44v-2.59c0-.22,.08-.43,.23-.58,.16-.15,.37-.23,.58-.22,.42-.03,.79,.29,.82,.72,0,.03,0,.05,0,.08v2.59h2.45c.19,0,.38,.07,.52,.2Z"/><path class="cls-1" d="M68.98,7.92c.29,.29,.29,.77,0,1.06-.15,.13-.35,.2-.55,.19h-2.83v8.93c0,.21-.08,.41-.23,.55-.34,.29-.83,.29-1.17,0-.15-.14-.23-.34-.23-.55V9.17h-2.78c-.2,0-.4-.07-.55-.2-.14-.14-.22-.34-.21-.54,0-.19,.07-.38,.21-.51,.15-.14,.35-.21,.55-.2h7.28c.19,0,.37,.07,.51,.2Z"/><path class="cls-1" d="M75.86,10.66c.15,.15,.23,.36,.22,.57v6.91c.01,.41-.32,.76-.73,.77-.01,0-.03,0-.04,0-.2,0-.4-.07-.54-.22-.14-.15-.21-.35-.2-.55v-.41c-.31,.39-.7,.72-1.14,.95-.47,.26-1,.39-1.54,.39-.71,.01-1.4-.18-2-.56-.6-.38-1.07-.91-1.38-1.55-.68-1.42-.68-3.06,0-4.48,.31-.63,.78-1.17,1.37-1.55,.58-.37,1.25-.56,1.93-.56,.54,0,1.08,.12,1.57,.35,.45,.21,.84,.51,1.16,.89v-.38c0-.21,.06-.41,.2-.56,.14-.15,.34-.23,.54-.22,.21-.02,.43,.06,.58,.21Zm-2.47,6.62c.4-.26,.71-.62,.91-1.05,.44-.95,.44-2.05,0-3-.2-.43-.52-.79-.91-1.06-.39-.26-.86-.4-1.33-.39-.47,0-.93,.13-1.33,.38-.39,.27-.7,.63-.9,1.06-.43,.95-.43,2.05,0,3,.2,.43,.51,.79,.9,1.05,.39,.26,.86,.4,1.33,.39,.47,.01,.94-.12,1.33-.38Z"/><path class="cls-1" d="M85.19,10.66c.14,.15,.22,.36,.22,.57v7c.03,.76-.17,1.51-.55,2.16-.36,.57-.88,1.01-1.49,1.28-.67,.28-1.39,.42-2.12,.41-.5,0-1-.08-1.49-.22-.39-.07-.77-.23-1.09-.46-.33-.17-.5-.38-.5-.64,.03-.35,.31-.62,.66-.65,.15,0,.3,.03,.44,.09,.63,.28,1.31,.45,2,.5,.72,.06,1.44-.17,2-.62,.46-.43,.71-1.05,.67-1.68v-.86c-.26,.46-.65,.83-1.12,1.07-.51,.29-1.08,.45-1.67,.45-.71,0-1.4-.19-2-.56-.61-.38-1.1-.91-1.43-1.55-.69-1.41-.69-3.07,0-4.48,.32-.64,.82-1.17,1.42-1.55,.6-.37,1.29-.57,2-.56,.57,0,1.14,.13,1.64,.4,.47,.24,.87,.58,1.18,1v-.51c0-.21,.07-.41,.21-.56,.14-.15,.34-.23,.54-.22,.18,0,.35,.07,.48,.19Zm-2.52,6.63c.4-.26,.73-.62,.94-1.05,.24-.47,.36-.99,.35-1.52,0-.52-.11-1.04-.35-1.51-.21-.43-.54-.8-.94-1.06-.42-.25-.9-.39-1.39-.38-.48,0-.96,.13-1.37,.38-.41,.26-.73,.63-.95,1.06-.23,.47-.35,.99-.34,1.51,0,.52,.11,1.03,.34,1.5,.21,.44,.54,.8,.95,1.06,.41,.26,.88,.4,1.37,.39,.48,0,.94-.13,1.35-.38h.04Z"/></svg>