<?xml version="1.0" encoding="UTF-8"?>
<svg width="30" height="30" id="Layer_1" data-name="Layer 1" xmlns="http://www.w3.org/2000/svg" viewBox="0 0 300 300">
  <defs>
    <style>
      .cls-1 {
        fill: #fff;
      }

      .cls-2, .cls-3 {
        fill: #ee3f36;
      }

      .cls-3 {
        fill-rule: evenodd;
      }
    </style>
  </defs>
  <g>
    <path class="cls-3" d="M158.12,125.02l44.88-25.92c3.75-2.17,4.95-.62,4.91,4.22v50.56c-.02,1.69-.31,3.52-2.81,4.98l-26.14,15.09h0l-21.11,12.2c-1.07,.62-2.71-.29-2.71-1.68v-54.07c0-2.14,1.69-4.64,2.98-5.39Z"/>
    <path class="cls-3" d="M144.86,130.41c0-2.14-1.69-4.64-2.98-5.39l-44.88-25.92c-3.75-2.17-4.96-.62-4.91,4.22v50.56c.03,1.69,.31,3.52,2.81,4.98l26.14,15.09h0l21.11,12.2c1.07,.62,2.71-.29,2.71-1.68v-54.07Z"/>
    <path class="cls-3" d="M100.81,89.47l45.58,26.32,.08,.04c2.26,.95,4.8,.95,7.06,0l.07-.04,45.58-26.32c1.41-.83,1.71-3.18,.12-4.09l-20.36-11.75-.27-.17-21.89-12.64h-.02c-3.2-1.86-6.78-1.7-6.78-1.7,0,0-3.58-.14-6.78,1.7h-.02l-21.89,12.64-.27,.17-20.36,11.75c-1.58,.92-1.28,3.27,.13,4.09Z"/>
    <path class="cls-2" d="M147.17,196.92c-.05-1.57,1.18-2.88,2.75-2.93,1.57-.05,2.88,1.18,2.93,2.75,0,.06,0,.13,0,.19v30.54c.05,1.57-1.18,2.88-2.75,2.93-1.57,.05-2.88-1.18-2.93-2.75,0-.06,0-.13,0-.19v-30.54Zm24.24,14.74c-.05-1.57,1.18-2.88,2.75-2.93,1.57-.05,2.88,1.18,2.93,2.75,0,.06,0,.13,0,.19v26.29c.05,1.57-1.18,2.88-2.75,2.93-1.57,.05-2.88-1.18-2.93-2.75,0-.06,0-.13,0-.19v-26.29Zm-48.48,0c-.05-1.57,1.18-2.88,2.75-2.93,1.57-.05,2.88,1.18,2.93,2.75,0,.06,0,.13,0,.19v26.29c.05,1.57-1.18,2.88-2.75,2.93-1.57,.05-2.88-1.18-2.93-2.75,0-.06,0-.13,0-.19v-26.29Z"/>
  </g>
</svg>