<?xml version="1.0" encoding="UTF-8"?>
<svg id="Layer_1" data-name="Layer 1" xmlns="http://www.w3.org/2000/svg" viewBox="0 0 713.48 208.59" width="170">
  <defs>
    <style>
      .cls-1 {
        fill: #222;
      }

      .cls-2 {
        fill: #333;
      }

      .cls-3 {
        fill: gray;
      }

      .cls-4 {
        fill: #f99221;
      }

      .cls-5 {
        fill: #ff3a46;
      }

      .cls-6 {
        fill: #414042;
      }
    </style>
  </defs>
  <g id="layer101">
    <path class="cls-1" d="M351.07,143.66c-.38-1.15-6.02-17.73-12.48-36.81l-11.78-34.76h17.16l.58,2.11c1.86,6.53,13.83,45.07,14.21,45.83,.26,.51,3.65-8.58,8.64-23.56l8.13-24.39h13.76l7.87,23.88c4.29,13.06,8,24.01,8.26,24.33,.26,.26,3.71-10.11,7.68-23.05,3.9-12.99,7.3-23.94,7.43-24.33,.19-.64,2.5-.83,8.58-.83h8.32l-4.67,13.64c-2.56,7.43-8.19,24.01-12.55,36.81l-7.87,23.17h-13.57l-6.34-18.37c-9.22-26.76-10.11-29.13-10.63-28.55-.26,.26-4.03,10.95-8.39,23.69l-7.94,23.24h-13.64l-.77-2.05Z"/>
    <path class="cls-1" d="M461.3,144.43c-4.99-1.34-13.12-5.31-16.64-8.26l-2.18-1.73,3.97-4.74c5.95-7.23,5.19-6.85,8.71-4.29,4.74,3.33,8.26,4.93,13.31,5.95,9.03,1.92,15.88-.9,15.88-6.47,0-4.35-2.75-6.08-16-9.86-10.63-3.07-14.6-4.93-18.05-8.45-3.2-3.33-4.48-7.17-4.48-13.64,0-4.35,.32-5.76,1.79-9.03,3.33-6.98,9.79-11.27,18.82-12.48,5.83-.83,13.19-.06,19.2,1.92,3.84,1.34,10.95,5.19,11.71,6.4,.19,.32-1.34,3.2-3.46,6.34l-3.9,5.76-5.25-2.69c-8.71-4.48-14.85-5.31-19.72-2.82-2.3,1.15-3.01,1.86-3.46,3.71-1.28,5.19,1.66,7.36,14.98,11.14,10.24,2.94,15.24,5.25,18.82,8.83s5.12,8.26,4.74,14.79c-.64,10.18-6.72,17.16-17.35,19.97-4.87,1.28-15.75,1.09-21.44-.38Z"/>
    <path class="cls-1" d="M523.91,116.26c0-15.81-.06-28.81-.13-28.81-.13,0-2.94,.7-6.27,1.6-3.33,.83-6.08,1.47-6.15,1.41-.58-.64-3.33-12.35-2.94-12.67,.26-.19,4.99-1.73,10.56-3.39,8.51-2.5,10.88-2.94,15.49-2.94h5.44v73.62h-16v-28.81Z"/>
    <path class="cls-1" d="M584.91,144.17c-5.51-1.79-10.56-6.98-12.35-12.8-1.98-6.21,.45-15.43,5.25-20.04,4.42-4.29,12.48-6.27,18.95-4.67,3.65,.83,9.09,4.03,9.09,5.25-.06,.45-1.34,2.24-2.94,3.97l-2.82,3.07-2.56-1.73c-5.12-3.52-11.07-2.43-13.89,2.56-2.62,4.67-1.66,10.31,2.3,14.08,1.79,1.66,2.56,1.92,5.76,1.92,2.94,0,4.22-.38,6.27-1.73l2.56-1.66,3.01,3.01,2.94,3.01-1.73,1.66c-4.61,4.29-13.57,6.15-19.84,4.1Z"/>
    <path class="cls-1" d="M622.17,144.23c-4.29-1.47-6.47-2.82-9.15-5.89-3.52-4.03-4.87-8.19-4.48-14.02,.51-7.81,4.03-12.87,11.39-16.32,4.67-2.18,12.8-2.3,17.35-.32,11.71,5.31,15.17,20.04,7.11,30.21-1.09,1.34-3.78,3.46-6.02,4.61-3.33,1.79-4.8,2.18-8.83,2.37-2.82,.13-5.83-.19-7.36-.64Zm11.2-9.35c7.04-3.78,6.4-15.94-1.02-19.01-8.32-3.52-16.32,4.87-12.99,13.64,2.11,5.57,8.83,8.19,14.02,5.38Z"/>
    <path class="cls-1" d="M557.84,138.98v-5.44h10.88v10.88h-10.88v-5.44Z"/>
    <path class="cls-1" d="M654.5,125.54v-18.88h10.24v5.38l2.11-2.05c5.25-5.06,13.25-5.31,17.92-.45l2.18,2.24,1.22-1.34c4.35-4.8,14.15-5.7,19.14-1.73,3.71,2.88,4.16,5.12,4.16,21.19v14.53h-10.24v-11.52c0-12.8-.58-15.49-3.52-16.64-3.07-1.15-5.44-.77-7.43,1.22l-1.86,1.86v25.09h-10.82l-.19-12.87-.19-12.87-1.79-1.54c-1.92-1.66-5.31-2.05-7.55-.9-2.69,1.47-3.14,3.71-3.14,16.32v11.84h-10.24v-18.88Z"/>
  </g>
  <g id="layer102">
    <path class="cls-2" d="M142.55,109.7c.64,1.73,36.41,40.59,36.83,40.74,.19,.19,2.43,.38,4.99,.38,5.44,0,11.39-1.66,17.86-4.99,5.89-3.07,14.92-11.97,19.78-19.46,9.67-14.92,17.67-37.38,20.55-57.61,.51-3.65,1.54-7.75,2.5-9.79,2.05-4.55,6.79-9.22,11.59-11.52,9.6-4.55,27.01-1.86,34.44,5.31,5.38,5.19,7.23,12.16,6.66,24.71-1.15,23.17-12.99,52.36-29.89,73.68-18.88,23.75-49.14,38.46-74.66,43.06-14.72,1.34-51.02-85.34-50.64-84.51Z"/>
    <path class="cls-5" d="M86.59,197.16c-34.18-5.76-66.19-38.98-77.59-80.59-1.22-4.55-2.69-10.75-3.2-13.76-3.33-19.59-2.56-42.06,1.98-56.4,4.8-15.3,10.88-21.06,22.66-21.64,17.86-.83,30.15,7.36,32.65,21.7,.58,3.46,.51,5.06-.58,10.5-2.05,10.37-2.82,21.32-2.43,33.29,.77,21.44,4.55,36.1,12.1,47.5,3.78,5.57,10.56,11.52,16.52,14.47,7.17,3.52,15.94,3.07,23.49-1.28l2.62-1.54-2.35-3.96c-10.05-16.52-17.09-37.79-19.9-59.69-.71-9-1.05-30.56,.23-37.22,2.67-13.48,9.19-19.67,24.07-22.36,7.68-1.28,13.06-.83,18.31,1.6,4.93,2.3,8.26,5.63,10.63,10.63,2.69,5.89,2.82,8.77,.83,19.52-2.53,12.64-2.05,22.98,1.15,38.41,1.28,5.83,2.5,11.27,2.88,12.1,.64,1.73,.19,2.37,5.63-7.36,2.5-4.42,8.9-18.76,12.74-28.49,4.61-11.71,13.31-37.51,12.87-38.22-.19-.32-3.26-.96-6.91-1.41s-7.11-1.02-7.81-1.22c-.9-.38,3.46-3.9,19.72-16.13,11.52-8.58,21-15.62,21.12-15.62,.38,0,30.53,40.14,30.92,41.16,.45,.96,.19,.96-9.73-.51-4.55-.64-8.39-1.15-8.45-1.02-.13,.06-.64,2.75-1.15,5.89-4.42,25.35-17.8,64.01-29.89,86.68-3.97,7.3-9.41,17.67-10.24,18.18-.32,.19-2.43-.77-4.03-1.47l-6.38-2.51,5.24,4.35c5.7,6.98,17.79,14.09,27.2,16.65,25.41,6.98,52.75-3.26,73.74-27.53l2.92-3.62-1.76,2.77c-19.46,29.51-52.63,52.21-83.1,55.09-14.72,1.34-27.79-1.17-41.04-8.09l-5.9-3.47-5.04,3.21c-17.28,10.24-37.13,14.34-54.73,11.39Z"/>
    <path class="cls-3" d="M181.69,194.59c-11.39-1.02-19.65-3.39-29.7-8.64-12.1-6.34-22.41-15.36-31.62-27.91-4.03-5.51-5.25-7.43-10.5-16.77-8.58-15.49-14.53-33.86-17.28-53.52-1.34-9.6-1.34-32.01,0-39.18,2.5-13.51,9.28-19.78,24.13-22.34,7.68-1.28,13.21-.89,18.46,1.55,4.93,2.3,8.26,5.63,10.63,10.63,2.78,5.62,3.37,8.78,.83,19.52-1.41,8.44-1.68,10.56-1.56,18.62,1.01,11.45,3.25,24.11,7.23,37.77,4.8,15.17,10.95,26.44,16.77,30.53,1.34,.96,3.71,3.33,5.25,5.25,6.15,7.49,17.54,14.18,27.21,16.87,25.41,6.98,50.73-1.83,73.15-26.62l4.24-5.5,.06-.09-.14,.24-.44,.74-1.86,3.11-1.58,2.41c-15.34,23.81-38.92,41.55-64.08,49.48-8.51,2.69-21.89,4.42-29.19,3.84Z"/>
    <g id="layer104">
      <path class="cls-4" d="M64.76,163.45c-22.53-3.52-41.93-19.4-53.07-43.47-4.93-10.56-6.36-15.63-7.7-31.12-1.22-14.6,.17-31.48,3.63-42.3,4.8-15.3,10.83-21.55,23.08-21.92,17.86-.83,29.97,7.64,32.47,21.98,.58,3.46,.51,5.06-.58,10.5-2.75,13.96-3.33,35.34-1.34,48.65,2.88,19.14,9.57,32.39,19.3,40.65,6.72,5.63,11.13,7.87,17.39,8.19,4.5,.24,8.94-1.28,8.94-1.28l-7.67,4.1c-7.81,4.16-18.69,6.98-26.44,6.85-1.6-.06-5.19-.45-8-.83Z"/>
    </g>
  </g>
  <g>
    <path class="cls-6" d="M346.69,190.86v-22.04h6.22c1.92,0,3.61,.42,5.09,1.27s2.61,2.05,3.41,3.62c.8,1.56,1.21,3.36,1.22,5.39v1.41c0,2.08-.4,3.9-1.2,5.46-.8,1.56-1.95,2.76-3.44,3.6-1.49,.84-3.22,1.27-5.2,1.29h-6.1Zm2.91-19.66v17.29h3.06c2.24,0,3.98-.7,5.23-2.09,1.25-1.39,1.87-3.38,1.87-5.95v-1.29c0-2.5-.59-4.45-1.76-5.84s-2.84-2.09-5-2.11h-3.39Z"/>
    <path class="cls-6" d="M377.53,191.16c-2.22,0-4.03-.73-5.42-2.19-1.39-1.46-2.09-3.41-2.09-5.85v-.52c0-1.62,.31-3.07,.93-4.35,.62-1.28,1.49-2.28,2.6-3,1.11-.72,2.32-1.08,3.62-1.08,2.13,0,3.78,.7,4.96,2.1,1.18,1.4,1.77,3.41,1.77,6.02v1.17h-11.09c.04,1.61,.51,2.92,1.42,3.91s2.05,1.49,3.44,1.49c.99,0,1.83-.2,2.51-.61,.69-.4,1.29-.94,1.8-1.61l1.71,1.33c-1.37,2.11-3.43,3.16-6.18,3.16Zm-.35-14.68c-1.13,0-2.08,.41-2.85,1.23-.77,.82-1.24,1.98-1.42,3.46h8.2v-.21c-.08-1.42-.46-2.53-1.15-3.31-.69-.78-1.61-1.17-2.79-1.17Z"/>
    <path class="cls-6" d="M394.35,190.86h-2.8v-23.25h2.8v23.25Z"/>
    <path class="cls-6" d="M403,170.13c0-.45,.14-.84,.42-1.15,.28-.31,.69-.47,1.23-.47s.96,.16,1.24,.47c.28,.31,.42,.7,.42,1.15s-.14,.83-.42,1.14-.7,.45-1.24,.45-.96-.15-1.23-.45c-.28-.3-.42-.68-.42-1.14Zm3.03,20.72h-2.8v-16.38h2.8v16.38Z"/>
    <path class="cls-6" d="M420.07,187.06l4.06-12.58h2.86l-5.87,16.38h-2.13l-5.93-16.38h2.86l4.16,12.58Z"/>
    <path class="cls-6" d="M440.63,191.16c-2.22,0-4.03-.73-5.42-2.19-1.39-1.46-2.09-3.41-2.09-5.85v-.52c0-1.62,.31-3.07,.93-4.35,.62-1.28,1.49-2.28,2.6-3,1.11-.72,2.32-1.08,3.62-1.08,2.13,0,3.78,.7,4.96,2.1,1.18,1.4,1.77,3.41,1.77,6.02v1.17h-11.09c.04,1.61,.51,2.92,1.42,3.91s2.05,1.49,3.44,1.49c.99,0,1.83-.2,2.51-.61,.69-.4,1.29-.94,1.8-1.61l1.71,1.33c-1.37,2.11-3.43,3.16-6.18,3.16Zm-.35-14.68c-1.13,0-2.08,.41-2.85,1.23-.77,.82-1.24,1.98-1.42,3.46h8.2v-.21c-.08-1.42-.46-2.53-1.15-3.31-.69-.78-1.61-1.17-2.79-1.17Z"/>
    <path class="cls-6" d="M462.32,176.99c-.42-.07-.88-.11-1.38-.11-1.84,0-3.08,.78-3.74,2.35v11.62h-2.8v-16.38h2.72l.04,1.89c.92-1.46,2.22-2.19,3.91-2.19,.54,0,.96,.07,1.24,.21v2.6Z"/>
    <path class="cls-6" d="M469.07,170.13c0-.45,.14-.84,.42-1.15,.28-.31,.69-.47,1.23-.47s.96,.16,1.24,.47c.28,.31,.42,.7,.42,1.15s-.14,.83-.42,1.14-.7,.45-1.24,.45-.96-.15-1.23-.45c-.28-.3-.42-.68-.42-1.14Zm3.03,20.72h-2.8v-16.38h2.8v16.38Z"/>
    <path class="cls-6" d="M483.38,174.48l.09,2.06c1.25-1.57,2.89-2.36,4.9-2.36,3.46,0,5.21,1.95,5.24,5.86v10.82h-2.8v-10.84c0-1.18-.28-2.05-.81-2.62-.53-.56-1.36-.85-2.47-.85-.91,0-1.71,.24-2.39,.73-.69,.48-1.22,1.12-1.6,1.91v11.67h-2.8v-16.38h2.65Z"/>
    <path class="cls-6" d="M501.32,182.53c0-2.55,.59-4.58,1.77-6.09,1.18-1.51,2.74-2.26,4.69-2.26s3.56,.71,4.68,2.12l.14-1.82h2.56v15.98c0,2.12-.63,3.79-1.88,5.01-1.26,1.22-2.94,1.83-5.06,1.83-1.18,0-2.34-.25-3.47-.76s-1.99-1.2-2.59-2.07l1.45-1.68c1.2,1.48,2.67,2.22,4.41,2.22,1.36,0,2.42-.38,3.19-1.15,.76-.77,1.14-1.85,1.14-3.24v-1.41c-1.12,1.29-2.65,1.94-4.59,1.94s-3.47-.77-4.66-2.32c-1.19-1.54-1.78-3.65-1.78-6.31Zm2.82,.32c0,1.85,.38,3.3,1.14,4.35,.76,1.05,1.82,1.58,3.18,1.58,1.77,0,3.06-.8,3.89-2.41v-7.48c-.86-1.56-2.14-2.35-3.86-2.35-1.36,0-2.43,.53-3.19,1.59s-1.15,2.63-1.15,4.71Z"/>
    <path class="cls-6" d="M552.74,190.86h-2.92v-10.19h-11.11v10.19h-2.91v-22.04h2.91v9.48h11.11v-9.48h2.92v22.04Z"/>
    <path class="cls-6" d="M571.73,190.86c-.16-.32-.29-.9-.39-1.73-1.3,1.35-2.86,2.03-4.66,2.03-1.61,0-2.94-.46-3.97-1.37-1.03-.91-1.55-2.07-1.55-3.47,0-1.71,.65-3.03,1.94-3.97,1.3-.94,3.12-1.42,5.47-1.42h2.72v-1.29c0-.98-.29-1.76-.88-2.34-.59-.58-1.45-.87-2.59-.87-1,0-1.84,.25-2.51,.76-.68,.5-1.01,1.11-1.01,1.83h-2.82c0-.82,.29-1.61,.87-2.37,.58-.76,1.37-1.36,2.36-1.81,.99-.44,2.09-.67,3.28-.67,1.89,0,3.37,.47,4.43,1.42,1.07,.94,1.62,2.24,1.67,3.9v7.54c0,1.5,.19,2.7,.58,3.59v.24h-2.94Zm-4.65-2.13c.88,0,1.71-.23,2.5-.68s1.36-1.04,1.71-1.77v-3.36h-2.19c-3.43,0-5.15,1-5.15,3.01,0,.88,.29,1.56,.88,2.06s1.34,.74,2.26,.74Z"/>
    <path class="cls-6" d="M596.47,182.85c0,2.49-.57,4.5-1.71,6.03-1.14,1.52-2.68,2.29-4.63,2.29s-3.55-.63-4.69-1.89v7.89h-2.8v-22.67h2.56l.14,1.82c1.14-1.41,2.72-2.12,4.75-2.12s3.52,.74,4.67,2.23c1.14,1.48,1.72,3.55,1.72,6.19v.26Zm-2.8-.32c0-1.85-.39-3.3-1.18-4.37-.79-1.07-1.87-1.61-3.24-1.61-1.7,0-2.97,.75-3.81,2.26v7.83c.84,1.49,2.12,2.24,3.84,2.24,1.34,0,2.41-.53,3.2-1.6,.79-1.06,1.19-2.65,1.19-4.75Z"/>
    <path class="cls-6" d="M618.01,182.85c0,2.49-.57,4.5-1.71,6.03-1.14,1.52-2.68,2.29-4.63,2.29s-3.55-.63-4.69-1.89v7.89h-2.8v-22.67h2.56l.14,1.82c1.14-1.41,2.72-2.12,4.75-2.12s3.52,.74,4.67,2.23c1.14,1.48,1.72,3.55,1.72,6.19v.26Zm-2.8-.32c0-1.85-.39-3.3-1.18-4.37-.79-1.07-1.87-1.61-3.24-1.61-1.7,0-2.97,.75-3.81,2.26v7.83c.84,1.49,2.12,2.24,3.84,2.24,1.34,0,2.41-.53,3.2-1.6,.79-1.06,1.19-2.65,1.19-4.75Z"/>
    <path class="cls-6" d="M625.74,170.13c0-.45,.14-.84,.42-1.15,.28-.31,.69-.47,1.23-.47s.96,.16,1.24,.47c.28,.31,.42,.7,.42,1.15s-.14,.83-.42,1.14-.7,.45-1.24,.45-.96-.15-1.23-.45c-.28-.3-.42-.68-.42-1.14Zm3.03,20.72h-2.8v-16.38h2.8v16.38Z"/>
    <path class="cls-6" d="M640.05,174.48l.09,2.06c1.25-1.57,2.89-2.36,4.9-2.36,3.46,0,5.21,1.95,5.24,5.86v10.82h-2.8v-10.84c0-1.18-.28-2.05-.81-2.62-.53-.56-1.36-.85-2.47-.85-.91,0-1.71,.24-2.39,.73-.69,.48-1.22,1.12-1.6,1.91v11.67h-2.8v-16.38h2.65Z"/>
    <path class="cls-6" d="M665.46,191.16c-2.22,0-4.03-.73-5.42-2.19-1.39-1.46-2.09-3.41-2.09-5.85v-.52c0-1.62,.31-3.07,.93-4.35,.62-1.28,1.49-2.28,2.6-3,1.11-.72,2.32-1.08,3.62-1.08,2.13,0,3.78,.7,4.96,2.1,1.18,1.4,1.77,3.41,1.77,6.02v1.17h-11.09c.04,1.61,.51,2.92,1.42,3.91s2.05,1.49,3.44,1.49c.99,0,1.83-.2,2.51-.61,.69-.4,1.29-.94,1.8-1.61l1.71,1.33c-1.37,2.11-3.43,3.16-6.18,3.16Zm-.35-14.68c-1.13,0-2.08,.41-2.85,1.23-.77,.82-1.24,1.98-1.42,3.46h8.2v-.21c-.08-1.42-.46-2.53-1.15-3.31-.69-.78-1.61-1.17-2.79-1.17Z"/>
    <path class="cls-6" d="M688.77,186.51c0-.76-.29-1.34-.86-1.76s-1.56-.78-2.98-1.08c-1.42-.3-2.54-.67-3.38-1.09-.83-.42-1.45-.93-1.85-1.51-.4-.59-.6-1.28-.6-2.09,0-1.34,.57-2.48,1.7-3.41,1.13-.93,2.59-1.39,4.35-1.39,1.86,0,3.36,.48,4.52,1.44,1.16,.96,1.73,2.18,1.73,3.68h-2.82c0-.77-.33-1.43-.98-1.98-.65-.56-1.47-.83-2.46-.83s-1.82,.22-2.39,.67-.86,1.02-.86,1.74c0,.68,.27,1.19,.8,1.53s1.5,.67,2.9,.98c1.4,.31,2.53,.69,3.4,1.12,.87,.43,1.51,.96,1.93,1.57s.63,1.35,.63,2.23c0,1.46-.58,2.64-1.76,3.52-1.17,.88-2.69,1.32-4.56,1.32-1.31,0-2.47-.23-3.48-.7s-1.8-1.11-2.37-1.95c-.57-.83-.86-1.73-.86-2.7h2.8c.05,.94,.43,1.68,1.13,2.23,.7,.55,1.63,.83,2.78,.83,1.06,0,1.91-.21,2.55-.64,.64-.43,.96-1,.96-1.72Z"/>
    <path class="cls-6" d="M708.91,186.51c0-.76-.29-1.34-.86-1.76s-1.56-.78-2.98-1.08c-1.42-.3-2.54-.67-3.38-1.09-.83-.42-1.45-.93-1.85-1.51-.4-.59-.6-1.28-.6-2.09,0-1.34,.57-2.48,1.7-3.41,1.13-.93,2.59-1.39,4.35-1.39,1.86,0,3.36,.48,4.52,1.44,1.16,.96,1.73,2.18,1.73,3.68h-2.82c0-.77-.33-1.43-.98-1.98-.65-.56-1.47-.83-2.46-.83s-1.82,.22-2.39,.67-.86,1.02-.86,1.74c0,.68,.27,1.19,.8,1.53s1.5,.67,2.9,.98c1.4,.31,2.53,.69,3.4,1.12,.87,.43,1.51,.96,1.93,1.57s.63,1.35,.63,2.23c0,1.46-.58,2.64-1.76,3.52-1.17,.88-2.69,1.32-4.56,1.32-1.31,0-2.47-.23-3.48-.7s-1.8-1.11-2.37-1.95c-.57-.83-.86-1.73-.86-2.7h2.8c.05,.94,.43,1.68,1.13,2.23,.7,.55,1.63,.83,2.78,.83,1.06,0,1.91-.21,2.55-.64,.64-.43,.96-1,.96-1.72Z"/>
  </g>
</svg>